<?xml version="1.0" encoding="UTF-8" standalone="no"?>
<!DOCTYPE svg PUBLIC "-//W3C//DTD SVG 1.1//EN" "http://www.w3.org/Graphics/SVG/1.1/DTD/svg11.dtd">
<!-- Created with Vectornator (http://vectornator.io/) -->
<svg height="1024.0pt" stroke-miterlimit="10" style="fill-rule:nonzero;clip-rule:evenodd;stroke-linecap:round;stroke-linejoin:round;" version="1.1" viewBox="0 0 1024 1024" width="1024.0pt" xml:space="preserve" xmlns="http://www.w3.org/2000/svg" xmlns:xlink="http://www.w3.org/1999/xlink">
<defs/>
<g id="Ebene-1">
<g opacity="1">
<path d="M541.533 512C509.105 518.486 499.772 489.033 488.772 475.033C474.869 461.13 477.75 459.412 468 442C454.371 417.662 441 393.128 427 369C414.633 347.686 394.611 329.207 390 305C385.447 281.096 362.067 249.031 356 238C353.475 233.409 354.735 221.103 355 220C359.997 199.178 401.081 185.495 415 178C439.688 164.706 464.234 151.147 489 138C491.242 136.81 493.492 135.396 496 135C517.212 131.651 539.949 152.728 535 175C531.2 192.101 515.414 198.999 520 218C524.984 238.648 532.769 237.584 543 256C570.535 305.563 596.869 357.448 626 406C635.108 421.18 653.76 408.36 666 417C676.254 424.238 681.345 436.497 687 447C687.851 448.58 688.777 450.219 689 452C690.997 467.974 681.965 477.136 669 485C652.137 495.229 634.956 504.925 618 515C607.821 521.049 593.439 532.456 590 523C584.964 509.151 541.533 526.679 541.533 512Z" fill="#f1a32f" fill-rule="nonzero" opacity="1" stroke="none"/>
<path d="M472 526C483.513 526 508.884 523.107 520 532C524.605 535.684 511.17 539.83 507 544C498.77 552.23 492.926 563.204 489 574C480.476 597.441 483.58 625.912 497 647C514.568 674.606 544.171 687.264 576 684C589.755 682.589 598.018 674.994 610 671C611 670.667 612.529 671.057 613 672C622.008 690.016 621.922 715.645 621 735C620.294 749.835 618.372 759.69 614 774C610.411 785.746 604.817 803.819 595 812C593.386 813.345 579.432 792.684 578 791C573.706 785.949 562.718 773.992 558 770C537.149 752.357 507.879 736.779 480 735C454.338 733.362 432.432 735.662 409 746C392.211 753.407 377.88 765.12 365 778C363.821 779.179 361.78 782.473 361 781C358.133 775.584 356.094 769.759 354 764C352.09 758.749 350.245 753.447 349 748C347.571 741.749 346.417 735.398 346 729C345.414 720.019 345.591 710.991 346 702C346.678 687.086 348.277 683.96 352 670C414.669 690.89 474.319 652.509 468 583C466.7 568.705 461.903 555.855 454 544C451.844 540.766 444.72 536.087 448 534C451.398 531.838 455.333 530.667 472 526Z" fill="#70b449" fill-rule="nonzero" opacity="1" stroke="none"/>
<path d="M606 318C591.084 303.084 583.696 282.183 573 264C589.835 247.165 614.424 232.509 633 219C670.796 191.512 708.325 163.655 746 136C764.65 122.31 783.174 108.447 802 95C806.374 91.8759 810.639 87.3829 816 87C847.934 84.719 880.997 134.206 865 163C859.709 172.524 856.097 173.139 846 179C802.732 204.113 759.315 228.969 716 254C679.271 275.225 642.61 296.57 606 318Z" fill="#727c80" fill-rule="nonzero" opacity="1" stroke="none"/>
<path d="M555 541C575.683 536.537 598.121 545.039 612 563C642.075 601.921 623.032 661.617 571 667C490.775 675.299 473.728 558.539 555 541Z" fill="#e0d9c6" fill-rule="nonzero" opacity="1" stroke="none"/>
<path d="M384 534C403.851 529.693 422.812 536.448 437 553C466.854 587.83 446.093 653.504 398 659C312.57 668.763 303.906 551.379 384 534Z" fill="#e1d9c6" fill-rule="nonzero" opacity="1" stroke="none"/>
<path d="M475 751C506.419 730.762 545.828 773.784 569 803C574.577 810.032 587.014 817.972 583 826C574.638 842.724 528.515 859.405 511 862C506.372 862.686 500.866 865.636 497 863C492.066 859.636 478.318 825.006 477.246 821.011C472.631 803.808 469.865 787.154 468.832 770.208C468.299 761.472 467.316 755.949 475 751Z" fill="#70b449" fill-rule="nonzero" opacity="1" stroke="none"/>
<path d="M459 751C459.768 780.185 459.814 805.032 468 833C468.847 835.895 480.648 859.704 479 863C438.464 856.6 389.733 835.466 370 796C366.711 789.422 391.814 773.088 395 771C414.835 758.005 435.512 751 459 751Z" fill="#70b449" fill-rule="nonzero" opacity="1" stroke="none"/>
<path d="M223.133 320.198C238.358 323.243 239.153 351.578 252.133 362.198C266.197 373.705 289.774 357.48 297.133 372.198C284.186 382.988 268.55 387.131 259.133 402.198C251.136 414.994 254.694 432.954 251.133 447.198C241.523 444.796 234.505 419.66 229.133 412.198C222.656 403.202 211.401 400.861 201.133 400.198C193.088 399.679 178.459 405.151 177.133 397.198C175.309 386.254 195.549 384.789 205.133 379.198C208.416 377.283 211.547 374.983 214.133 372.198C226.872 358.48 215.55 335.365 223.133 320.198Z" fill="#f1a32f" fill-rule="nonzero" opacity="1" stroke="none"/>
<path d="M545 571C595.442 565.066 599.136 641.304 556 644C507.776 647.014 498.784 576.437 545 571Z" fill="#0b0f14" fill-rule="nonzero" opacity="1" stroke="none"/>
<path d="M825.263 512C825.263 528.291 819.779 545.255 826.263 561C830.888 572.232 859.288 575.9 856.263 588C838.462 588.828 816.952 583.592 803.263 595C796.02 601.036 789.807 608.213 783.263 615C779.974 618.41 776.859 622.851 772.263 624C773.623 609.036 781.656 592.932 778.263 578C774.894 563.18 745.105 549.631 748.263 537C763.637 538.708 777.42 548.168 793.263 545C808.867 541.879 810.192 512 825.263 512Z" fill="#f1a32f" fill-rule="nonzero" opacity="1" stroke="none"/>
<path d="M396 568C446.231 560.143 454.858 632.024 407 640C363.253 647.291 349.186 575.322 396 568Z" fill="#0a0f14" fill-rule="nonzero" opacity="1" stroke="none"/>
<path d="M369 434C418.087 434 444 481.576 444 526C438.453 526.504 427.949 529.54 424 522C421.506 517.239 423.126 511.256 422 506C419.127 492.594 411.29 479.91 402 470C389.46 456.624 365.485 460.881 369 434Z" fill="#72b64a" fill-rule="nonzero" opacity="1" stroke="none"/>
<path d="M471 664C491.271 662.066 505.38 676.183 509 697C510.049 703.03 510.919 710.117 504 713C495.5 716.542 487.261 706.396 480 705C468.582 702.804 454.251 714.27 445 710C423.416 700.038 458.102 665.231 471 664Z" fill="#090f14" fill-rule="nonzero" opacity="1" stroke="none"/>
<path d="M679 84C681.5 84 681.5 84 684 84C681.565 96.1731 664.022 105.788 655 114C631.62 135.282 608.545 156.901 585 178C582.865 179.914 580.647 181.897 578 183C570.964 185.932 567.186 176.373 565 172C561.082 164.164 566.506 160.611 573 156C602.928 134.751 633.667 114.667 679 84Z" fill="#d6d3c4" fill-rule="nonzero" opacity="1" stroke="none"/>
<path d="M282 630C302.793 630 300.713 657.876 316 670C322.23 674.941 332.526 675.848 336 683C339.234 689.657 334 697.667 333 705C311.186 697.729 262.989 658.686 282 630Z" fill="#72b64a" fill-rule="nonzero" opacity="1" stroke="none"/>
<path d="M679 644C703.314 644 690.797 668.354 682 681C672.839 694.169 652.472 715 635 715C634.667 707.667 630.717 699.566 634 693C638.425 684.151 652.627 684.568 659 677C665.119 669.734 670.264 656.938 679 644Z" fill="#72b64a" fill-rule="nonzero" opacity="1" stroke="none"/>
<path d="M333 740C333.5 749 333.5 749 334 758C319.328 762.891 305.216 767.462 295 780C290.031 786.099 288.714 797.457 281 799C253.305 804.539 277.406 768.183 283 762C295.678 747.987 314.421 740 333 740Z" fill="#72b64a" fill-rule="nonzero" opacity="1" stroke="none"/>
<path d="M635 750C656.282 750 676.94 763.664 689 781C693.487 787.45 704.447 815.576 684 810C673.946 807.258 669.142 788.979 661 782C652.846 775.01 642.716 772.001 633 768C634.213 754.653 633.479 760.645 635 750Z" fill="#72b64a" fill-rule="nonzero" opacity="1" stroke="none"/>
<path d="M611 814C630.305 817.861 643.324 845.12 645 863C646.077 874.484 643.687 906.687 625 888C618.148 881.148 624.473 868.577 623 859C621.117 846.76 611.6 837.644 603 830C605.667 824.667 608.333 819.333 611 814Z" fill="#72b64a" fill-rule="nonzero" opacity="1" stroke="none"/>
<path d="M352 804C358.888 806.296 360.953 813.905 364 820C349.013 829.991 339.282 840.623 336 859C334.945 864.91 337.667 878.242 328 880C312.097 882.891 313.204 866.074 315 855C318.324 834.502 331.305 819.207 352 804Z" fill="#72b64a" fill-rule="nonzero" opacity="1" stroke="none"/>
<path d="M260 485C276.701 486.275 288.981 501.834 303 511C309.195 515.05 319.053 516.86 321 524C325.136 539.167 309.339 543.966 300 535C285.717 521.289 271.038 507.9 258 493C254.76 489.297 257.339 484.797 260 485Z" fill="#d5d2c3" fill-rule="nonzero" opacity="1" stroke="none"/>
<path d="M728 324C730 324.5 730 324.5 732 325C730.041 334.795 723.674 343.172 719 352C712.848 363.621 710.761 380.12 699 386C692.383 389.308 677.587 376.62 682 370C689.204 359.194 700.308 350.481 728 324Z" fill="#cbc8ba" fill-rule="nonzero" opacity="1" stroke="none"/>
<path d="M658 160C660 160.5 660 160.5 662 161C660.212 169.94 614.475 210.058 606 211C603.75 211.25 590.656 209.977 598 203C603.704 197.582 610.622 193.606 617 189C622.623 184.939 628.356 181.032 634 177C640.023 172.698 646 168.333 658 160Z" fill="#d3d1c2" fill-rule="nonzero" opacity="1" stroke="none"/>
<path d="M768 399C770 399.5 770 399.5 772 400C769.484 410.064 745.777 428.124 737 433C729.901 436.944 720.577 418.708 733 413C742.787 408.503 753 405 768 399Z" fill="#ccc9bb" fill-rule="nonzero" opacity="1" stroke="none"/>
<path d="M247 567C261.039 562.308 276.515 569.951 291 573C296.076 574.069 293.685 586.66 290 588C277.004 592.726 262.933 581.894 250 577C242.524 574.171 241.434 568.86 247 567Z" fill="#cdcabb" fill-rule="nonzero" opacity="1" stroke="none"/>
<path d="M390 579C408.683 574.865 414.711 600.583 399 603C383.823 605.335 373.41 582.672 390 579Z" fill="#e0dac9" fill-rule="nonzero" opacity="1" stroke="none"/>
<path d="M535 584C545.844 580.922 562.838 597.486 545 607C529.497 615.269 519.079 588.519 535 584Z" fill="#dfd9c8" fill-rule="nonzero" opacity="1" stroke="none"/>
</g>
</g>
</svg>
